<svg width="237" height="245" viewBox="0 0 237 245" fill="none" xmlns="http://www.w3.org/2000/svg">
<g clip-path="url(#clip0_151_3606)">
<path d="M127.95 0H97.29V30.66H127.95V0Z" fill="white"/>
<path d="M89.14 45.99H58.48V76.65H89.14V45.99Z" fill="white"/>
<path d="M30.66 45.99H0V76.65H30.66V45.99Z" fill="white"/>
<path d="M61.3199 110.47H30.6599V141.13H61.3199V110.47Z" fill="white"/>
<path d="M236.74 244.54H153.93L148.28 207.07C154.6 202.54 158.7 195.21 158.7 186.85C158.7 173.11 147.56 162 133.82 161.97C126.96 161.97 120.72 164.73 116.22 169.23C111.72 173.76 108.94 179.94 108.94 186.85C108.94 195.21 113.09 202.54 119.38 207.07L113.73 244.54H30.9299L55.8899 185.41H81.8099V154.75H68.8199L78.6999 131.37L78.9399 130.81H107.3V100.15H91.8999L96.1599 90.05L111.48 53.76H156.42L236.74 244.54Z" fill="white"/>
</g>
<defs>
<clipPath id="clip0_151_3606">
<rect width="236.74" height="244.54" fill="white"/>
</clipPath>
</defs>
</svg>
