<svg width="237" height="245" viewBox="0 0 237 245" fill="none" xmlns="http://www.w3.org/2000/svg">
<path d="M127.95 0H97.29V30.66H127.95V0Z" fill="#2BC48A"/>
<path d="M89.14 45.99H58.48V76.65H89.14V45.99Z" fill="#2BC48A"/>
<path d="M30.66 45.99H0V76.65H30.66V45.99Z" fill="#2BC48A"/>
<path d="M61.32 110.47H30.66V141.13H61.32V110.47Z" fill="#2BC48A"/>
<path d="M236.74 244.54H153.93L148.28 207.07C154.6 202.54 158.7 195.21 158.7 186.85C158.7 173.11 147.56 162 133.82 161.97C126.96 161.97 120.72 164.73 116.22 169.23C111.72 173.76 108.94 179.94 108.94 186.85C108.94 195.21 113.09 202.54 119.38 207.07L113.73 244.54H30.9301L55.8901 185.41H81.8101V154.75H68.8201L78.7001 131.37L78.9401 130.81H107.3V100.15H91.9001L96.1601 90.05L111.48 53.76H156.42L236.74 244.54Z" fill="#2BC48A"/>
</svg>
