<svg width="237" height="246" viewBox="0 0 237 246" fill="none" xmlns="http://www.w3.org/2000/svg">
<path d="M127.95 0.540039H97.29V31.2H127.95V0.540039Z" fill="#1D1D25"/>
<path d="M89.14 46.53H58.48V77.19H89.14V46.53Z" fill="#1D1D25"/>
<path d="M30.66 46.53H0V77.19H30.66V46.53Z" fill="#1D1D25"/>
<path d="M61.3199 111.01H30.6599V141.67H61.3199V111.01Z" fill="#1D1D25"/>
<path d="M236.74 245.08H153.93L148.28 207.61C154.6 203.08 158.7 195.75 158.7 187.39C158.7 173.65 147.56 162.54 133.82 162.51C126.96 162.51 120.72 165.27 116.22 169.77C111.72 174.3 108.94 180.48 108.94 187.39C108.94 195.75 113.09 203.08 119.38 207.61L113.73 245.08H30.9299L55.8899 185.95H81.8099V155.29H68.8199L78.6999 131.91L78.9399 131.35H107.3V100.69H91.8999L96.1599 90.5901L111.48 54.3H156.42L236.74 245.08Z" fill="#1D1D25"/>
</svg>
