<svg width="223" height="74" viewBox="0 0 223 74" fill="none" xmlns="http://www.w3.org/2000/svg">
    <path d="M27.4491 0H20.8712V6.57791H27.4491V0Z" fill="white"/>
    <path d="M19.1248 9.86399H12.5469V16.4419H19.1248V9.86399Z" fill="white"/>
    <path d="M6.57791 9.86399H0V16.4419H6.57791V9.86399Z" fill="white"/>
    <path d="M13.1558 23.6977H6.57791V30.2756H13.1558V23.6977Z" fill="white"/>
    <path d="M69.6684 43.5406L88.9942 16.5568V11.7655H55.1338V20.6816H74.2757L54.1169 47.6654V52.4509H89.3561V43.5406H69.6684Z"
          fill="white"/>
    <path d="M116.041 28.4602L110.359 27.1446C107.303 26.484 105.689 25.5303 105.689 23.3128C105.689 20.6816 108.021 19.2454 111.491 19.2454C115.622 19.2454 117.535 21.3423 118.075 24.3928H128.243C127.226 13.4431 117.414 10.8693 110.836 10.8693C101.26 10.8693 94.6816 16.0168 94.6816 24.1515C94.6816 30.6145 98.4503 34.3832 106.47 36.1182L113.169 37.6176C116.639 38.2725 117.477 39.7087 117.477 41.0875C117.477 43.2993 115.501 44.6723 111.732 44.6723C106.947 44.6723 103.833 42.5237 103.178 38.9332H93.0673C94.021 48.981 102.282 53.2896 111.434 53.2896C121.602 53.2896 128.307 48.2054 128.307 40.0706C128.307 33.0676 123.458 30.0745 116.041 28.4602Z"
          fill="white"/>
    <path d="M153.934 43.8393C147.293 43.8393 142.686 38.87 142.686 32.1082C142.686 25.3522 147.293 20.3829 153.934 20.3829C159.317 20.3829 162.908 23.5541 164.045 28.6383H174.398C173.14 18.1079 165.126 10.9325 153.992 10.9325C141.727 10.9325 132.454 19.8429 132.454 32.1082C132.454 44.3736 141.727 53.2897 153.992 53.2897C165.126 53.2897 173.14 46.1085 174.398 35.5781H164.045C162.908 40.6681 159.317 43.8393 153.934 43.8393Z"
          fill="white"/>
    <path d="M200.681 10.9325C188.415 10.9325 179.143 20.2622 179.143 32.1082C179.143 43.9542 188.415 53.2897 200.681 53.2897C213.009 53.2897 222.282 43.9542 222.282 32.1082C222.282 20.2622 213.009 10.9325 200.681 10.9325ZM200.681 43.8968C194.103 43.8968 189.375 38.5138 189.375 32.1082C189.375 25.7084 194.103 20.3254 200.681 20.3254C207.264 20.3254 211.992 25.7084 211.992 32.1082C211.992 38.5138 207.264 43.8968 200.681 43.8968Z"
          fill="white"/>
    <path d="M50.7849 52.4566H33.0217L31.8095 44.4195C33.1653 43.4486 34.0443 41.8745 34.0443 40.0821C34.0443 37.135 31.6544 34.7509 28.7072 34.7451C27.2366 34.7451 25.898 35.3369 24.9328 36.302C23.9677 37.2729 23.3702 38.6 23.3702 40.0821C23.3702 41.8745 24.2607 43.4486 25.6107 44.4195L24.3986 52.4566H6.63535L11.9896 39.7719H17.5507V33.194H14.7644L16.8842 28.1787L16.936 28.0581H23.0198V21.4802H19.7165L23.916 11.53H33.5559L50.7849 52.4566Z"
          fill="white"/>
    <path d="M9.11715 69.18C8.89884 69.18 8.68628 69.1341 8.49096 69.0479C8.29563 68.9617 8.12328 68.8468 7.97392 68.7032C7.82455 68.5596 7.70965 68.3872 7.62922 68.1919C7.54879 67.9966 7.50283 67.7898 7.50283 67.5657V64.3428C7.50283 64.1245 7.54305 63.912 7.62922 63.7166C7.71539 63.5213 7.83029 63.349 7.97392 63.2053C8.11754 63.0617 8.28988 62.9468 8.49096 62.8606C8.69203 62.7745 8.8931 62.7285 9.11715 62.7285H14.5863C14.8046 62.7285 15.0172 62.7745 15.2125 62.8606C15.4078 62.9468 15.5802 63.0617 15.7295 63.2053C15.8789 63.349 15.9938 63.5213 16.0742 63.7166C16.1546 63.912 16.2006 64.1188 16.2006 64.3428V65.7963H14.592V64.3428H9.12289V67.5657H14.592C14.8103 67.5657 15.0229 67.6059 15.2182 67.6921C15.4136 67.7783 15.5859 67.8932 15.7353 68.0368C15.8846 68.1804 15.9995 68.3528 16.08 68.5538C16.1604 68.7549 16.2064 68.956 16.2064 69.18V72.3914C16.2064 72.6097 16.1661 72.8223 16.08 73.0176C15.9938 73.213 15.8789 73.3853 15.7353 73.5347C15.5916 73.684 15.4193 73.7989 15.2182 73.8794C15.0172 73.9598 14.8161 74.0058 14.592 74.0058H8.96778C8.74948 74.0058 8.53692 73.9655 8.34159 73.8794C8.14626 73.7932 7.97392 73.6783 7.82455 73.5347C7.67518 73.391 7.56028 73.2187 7.47985 73.0176C7.39943 72.8166 7.35347 72.6155 7.35347 72.3914V70.9437H8.96204V72.3914H14.5863V69.18H9.11715Z"
          fill="white"/>
    <path d="M41.3115 62.74L44.5861 68.0023L47.8665 62.74H49.7336L45.3904 69.5362V74.0058H43.7818V69.5362L39.4387 62.74H41.3115Z"
          fill="white"/>
    <path d="M74.5917 69.18C74.3734 69.18 74.1609 69.1341 73.9655 69.0479C73.7702 68.9617 73.5979 68.8468 73.4485 68.7032C73.2991 68.5596 73.1842 68.3872 73.1038 68.1919C73.0234 67.9966 72.9774 67.7898 72.9774 67.5657V64.3428C72.9774 64.1245 73.0176 63.912 73.1038 63.7166C73.19 63.5213 73.3049 63.349 73.4485 63.2053C73.5921 63.0617 73.7645 62.9468 73.9655 62.8606C74.1666 62.7745 74.3677 62.7285 74.5917 62.7285H80.0609C80.2792 62.7285 80.4917 62.7745 80.6871 62.8606C80.8824 62.9468 81.0547 63.0617 81.2041 63.2053C81.3535 63.349 81.4684 63.5213 81.5488 63.7166C81.6292 63.912 81.6752 64.1188 81.6752 64.3428V65.7963H80.0666V64.3428H74.5975V67.5657H80.0666C80.2849 67.5657 80.4975 67.6059 80.6928 67.6921C80.8881 67.7783 81.0605 67.8932 81.2098 68.0368C81.3592 68.1804 81.4741 68.3528 81.5545 68.5538C81.635 68.7549 81.6809 68.956 81.6809 69.18V72.3914C81.6809 72.6097 81.6407 72.8223 81.5545 73.0176C81.4684 73.213 81.3535 73.3853 81.2098 73.5347C81.0662 73.684 80.8939 73.7989 80.6928 73.8794C80.4917 73.9598 80.2907 74.0057 80.0666 74.0057H74.4424C74.2241 74.0057 74.0115 73.9655 73.8162 73.8794C73.6208 73.7932 73.4485 73.6783 73.2991 73.5347C73.1498 73.391 73.0349 73.2187 72.9544 73.0176C72.874 72.8166 72.828 72.6155 72.828 72.3914V70.9437H74.4366V72.3914H80.0609V69.18H74.5917Z"
          fill="white"/>
    <path d="M105.074 62.74H114.082V64.3486H110.382V74H108.774V64.3486H105.074V62.74Z" fill="white"/>
    <path d="M137.487 62.74H145.696V64.3486H139.101V67.5715H144.731V69.18H139.101V72.3914H145.696V74H137.487V62.74Z"
          fill="white"/>
    <path d="M175.397 74L171.198 65.7446V74H169.589V62.7343H171.347L175.633 71.2195L179.93 62.7343H181.682V74H180.08V65.7446L175.88 74H175.397Z"
          fill="white"/>
    <path d="M207.661 69.18C207.442 69.18 207.23 69.1341 207.035 69.0479C206.839 68.9617 206.667 68.8468 206.518 68.7032C206.368 68.5596 206.253 68.3872 206.173 68.1919C206.092 67.9966 206.046 67.7898 206.046 67.5657V64.3428C206.046 64.1245 206.087 63.912 206.173 63.7166C206.259 63.5213 206.374 63.349 206.518 63.2053C206.661 63.0617 206.833 62.9468 207.035 62.8606C207.236 62.7745 207.437 62.7285 207.661 62.7285H213.13C213.348 62.7285 213.561 62.7745 213.756 62.8606C213.951 62.9468 214.124 63.0617 214.273 63.2053C214.422 63.349 214.537 63.5213 214.618 63.7166C214.698 63.912 214.744 64.1188 214.744 64.3428V65.7963H213.136V64.3428H207.667V67.5657H213.136C213.354 67.5657 213.566 67.6059 213.762 67.6921C213.957 67.7783 214.13 67.8932 214.279 68.0368C214.428 68.1804 214.543 68.3528 214.624 68.5538C214.704 68.7549 214.75 68.956 214.75 69.18V72.3914C214.75 72.6097 214.71 72.8223 214.624 73.0176C214.537 73.213 214.422 73.3853 214.279 73.5347C214.135 73.684 213.963 73.7989 213.762 73.8794C213.561 73.9598 213.36 74.0057 213.136 74.0057H207.511C207.293 74.0057 207.081 73.9655 206.885 73.8794C206.69 73.7932 206.518 73.6783 206.368 73.5347C206.219 73.391 206.104 73.2187 206.023 73.0176C205.943 72.8166 205.897 72.6155 205.897 72.3914V70.9437H207.506V72.3914H213.13V69.18H207.661Z"
          fill="white"/>
</svg>
